<?xml version="1.0" encoding="UTF-8"?>
<svg xmlns="http://www.w3.org/2000/svg" xmlns:xlink="http://www.w3.org/1999/xlink" width="24pt" height="24pt" viewBox="0 0 24 24" version="1.1">
<g id="surface1">
<path style=" stroke:none;fill-rule:nonzero;fill:#FFFFFF;fill-opacity:1;" d="M 20.023438 15.488281 C 19.394531 15.472656 18.601563 15.4375 18.097656 15.347656 C 17.558594 15.253906 16.90625 15.066406 16.445313 14.921875 C 16.085938 14.8125 15.695313 14.910156 15.425781 15.175781 L 13.210938 17.378906 C 11.679688 16.574219 10.449219 15.632813 9.410156 14.589844 C 8.367188 13.550781 7.425781 12.320313 6.621094 10.789063 L 8.824219 8.570313 C 9.089844 8.304688 9.1875 7.914063 9.078125 7.554688 C 8.933594 7.09375 8.746094 6.441406 8.652344 5.902344 C 8.5625 5.398438 8.527344 4.605469 8.511719 3.976563 C 8.5 3.433594 8.054688 3 7.511719 3 L 4 3 C 3.5625 3 3 3.328125 3 4 C 3 8.539063 4.839844 12.875 7.964844 16.035156 C 11.125 19.160156 15.460938 21 20 21 C 20.671875 21 21 20.4375 21 20 L 21 16.488281 C 21 15.945313 20.566406 15.5 20.023438 15.488281 Z "/>
<path style=" stroke:none;fill-rule:nonzero;fill:#FFFFFF;fill-opacity:1;" d="M 13 6 L 21 6 L 21 8 L 13 8 Z "/>
<path style=" stroke:none;fill-rule:nonzero;fill:#FFFFFF;fill-opacity:1;" d="M 16 3 L 18 3 L 18 11 L 16 11 Z "/>
</g>
</svg>
