<?xml version="1.0" encoding="UTF-8"?>
<svg xmlns="http://www.w3.org/2000/svg" xmlns:xlink="http://www.w3.org/1999/xlink" width="24pt" height="24pt" viewBox="0 0 24 24" version="1.1">
<g id="surface1">
<path style=" stroke:none;fill-rule:nonzero;fill:#FFFFFF;fill-opacity:1;" d="M 17 3 C 16.449219 3 16 3.449219 16 4 L 16 6 L 14 6 C 13.449219 6 13 6.449219 13 7 C 13 7.550781 13.449219 8 14 8 L 16 8 L 16 10 C 16 10.550781 16.449219 11 17 11 C 17.550781 11 18 10.550781 18 10 L 18 8 L 20 8 C 20.550781 8 21 7.550781 21 7 C 21 6.449219 20.550781 6 20 6 L 18 6 L 18 4 C 18 3.449219 17.550781 3 17 3 Z M 5.03125 3.007813 C 3.898438 3.007813 2.960938 3.949219 3.03125 5.078125 C 3.292969 9.347656 5.132813 13.1875 7.972656 16.027344 C 10.8125 18.867188 14.652344 20.707031 18.921875 20.96875 C 20.050781 21.039063 20.988281 20.101563 20.988281 18.96875 L 20.988281 17.238281 C 20.988281 16.21875 20.230469 15.371094 19.21875 15.25 L 16.699219 14.960938 C 16.089844 14.890625 15.492188 15.097656 15.0625 15.53125 L 13.210938 17.378906 C 11.792969 16.660156 10.503906 15.71875 9.390625 14.609375 C 8.28125 13.496094 7.339844 12.207031 6.617188 10.789063 L 8.46875 8.9375 C 8.902344 8.507813 9.109375 7.910156 9.039063 7.300781 L 8.75 4.78125 C 8.628906 3.769531 7.78125 3.007813 6.757813 3.007813 Z "/>
</g>
</svg>
