<?xml version="1.0" encoding="UTF-8"?>
<svg xmlns="http://www.w3.org/2000/svg" xmlns:xlink="http://www.w3.org/1999/xlink" width="26pt" height="26pt" viewBox="0 0 26 26" version="1.1">
<g id="surface1">
<path style=" stroke:none;fill-rule:nonzero;fill:#FFFFFF;fill-opacity:1;" d="M 10.339844 2.953125 C 9.640625 2.953125 9.179688 3.238281 8.957031 3.632813 L 7.695313 5.910156 L 5.910156 5.910156 C 5.910156 5.367188 5.464844 4.925781 4.925781 4.925781 L 2.953125 4.925781 C 2.414063 4.925781 1.96875 5.367188 1.96875 5.910156 L 1.96875 6.09375 C 0.824219 6.5 0 7.578125 0 8.863281 L 0 18.835938 C 0 21.484375 2.152344 23.636719 4.800781 23.636719 L 20.804688 23.636719 C 23.457031 23.636719 25.605469 21.484375 25.605469 18.835938 L 25.605469 10.710938 C 25.605469 8.058594 23.457031 5.910156 20.804688 5.910156 L 19.882813 5.910156 L 18.621094 3.632813 C 18.398438 3.238281 17.902344 2.953125 17.234375 2.953125 Z M 3.9375 6.402344 C 4.753906 6.402344 5.417969 7.0625 5.417969 7.878906 C 5.417969 8.695313 4.753906 9.355469 3.9375 9.355469 C 3.125 9.355469 2.460938 8.695313 2.460938 7.878906 C 2.460938 7.0625 3.125 6.402344 3.9375 6.402344 Z M 13.789063 6.832031 C 17.628906 6.832031 20.742188 9.949219 20.742188 13.789063 C 20.742188 17.628906 17.628906 20.742188 13.789063 20.742188 C 9.949219 20.742188 6.832031 17.632813 6.832031 13.789063 C 6.832031 9.945313 9.949219 6.832031 13.789063 6.832031 Z M 13.789063 9.046875 C 11.171875 9.046875 9.046875 11.171875 9.046875 13.789063 C 9.046875 16.402344 11.171875 18.527344 13.789063 18.527344 C 16.402344 18.527344 18.527344 16.402344 18.527344 13.789063 C 18.527344 11.171875 16.402344 9.046875 13.789063 9.046875 Z "/>
</g>
</svg>
