<?xml version="1.0" encoding="UTF-8"?>
<svg xmlns="http://www.w3.org/2000/svg" xmlns:xlink="http://www.w3.org/1999/xlink" width="24pt" height="24pt" viewBox="0 0 24 24" version="1.1">
<g id="surface1">
<path style=" stroke:none;fill-rule:nonzero;fill:#FFFFFF;fill-opacity:1;" d="M 21.992188 5 C 21.992188 3.898438 21.101563 3 20 3 L 4 3 C 2.902344 3 2 3.898438 2 5 L 2 17 C 2 18.101563 2.902344 19 4 19 L 18 19 L 20.789063 21.789063 C 21.238281 22.234375 22 21.917969 22 21.285156 Z M 13 16 L 8 16 C 7.449219 16 7 15.550781 7 15 C 7 14.449219 7.449219 14 8 14 L 13 14 C 13.550781 14 14 14.449219 14 15 C 14 15.550781 13.550781 16 13 16 Z M 16 12 L 8 12 C 7.449219 12 7 11.550781 7 11 C 7 10.449219 7.449219 10 8 10 L 16 10 C 16.550781 10 17 10.449219 17 11 C 17 11.550781 16.550781 12 16 12 Z M 16 8 L 8 8 C 7.449219 8 7 7.550781 7 7 C 7 6.449219 7.449219 6 8 6 L 16 6 C 16.550781 6 17 6.449219 17 7 C 17 7.550781 16.550781 8 16 8 Z "/>
</g>
</svg>
