<?xml version="1.0" encoding="UTF-8"?>
<svg xmlns="http://www.w3.org/2000/svg" xmlns:xlink="http://www.w3.org/1999/xlink" width="24pt" height="24pt" viewBox="0 0 24 24" version="1.1">
<g id="surface1">
<path style=" stroke:none;fill-rule:nonzero;fill:#FFFFFF;fill-opacity:1;" d="M 20 3 L 4.011719 3 C 2.910156 3 2.011719 3.898438 2.011719 5 L 2 17 C 2 18.105469 2.894531 19 4 19 L 5.5 19 C 5.777344 19 6 19.222656 6 19.5 L 6 21.585938 C 6 22.476563 7.078125 22.921875 7.707031 22.292969 L 10.707031 19.292969 C 10.894531 19.105469 11.148438 19 11.414063 19 L 20 19 C 21.101563 19 22 18.101563 22 17 L 22 5 C 22 3.898438 21.101563 3 20 3 Z M 8.5 12 L 7.5 12 C 7.222656 12 7 11.777344 7 11.5 L 7 10.5 C 7 10.222656 7.222656 10 7.5 10 L 8.5 10 C 8.777344 10 9 10.222656 9 10.5 L 9 11.5 C 9 11.777344 8.777344 12 8.5 12 Z M 12.5 12 L 11.5 12 C 11.222656 12 11 11.777344 11 11.5 L 11 10.5 C 11 10.222656 11.222656 10 11.5 10 L 12.5 10 C 12.777344 10 13 10.222656 13 10.5 L 13 11.5 C 13 11.777344 12.777344 12 12.5 12 Z M 16.5 12 L 15.5 12 C 15.222656 12 15 11.777344 15 11.5 L 15 10.5 C 15 10.222656 15.222656 10 15.5 10 L 16.5 10 C 16.777344 10 17 10.222656 17 10.5 L 17 11.5 C 17 11.777344 16.777344 12 16.5 12 Z "/>
</g>
</svg>
