<?xml version="1.0" encoding="UTF-8"?>
<svg xmlns="http://www.w3.org/2000/svg" xmlns:xlink="http://www.w3.org/1999/xlink" width="32pt" height="32pt" viewBox="0 0 32 32" version="1.1">
<g id="surface1">
<path style=" stroke:none;fill-rule:nonzero;fill:#FFFFFF;fill-opacity:1;" d="M 10 7 C 6.699219 7 4 9.699219 4 13 C 4 14.945313 4.933594 16.683594 6.375 17.78125 C 3.214844 19.179688 1 22.328125 1 26 L 3 26 C 3 22.140625 6.140625 19 10 19 C 13.859375 19 17 22.140625 17 26 L 31 26 L 31 25.5 C 31 21.363281 27.636719 18 23.5 18 C 21.109375 18 18.914063 19.132813 17.5 21.03125 C 16.554688 19.609375 15.199219 18.480469 13.625 17.78125 C 15.066406 16.683594 16 14.945313 16 13 C 16 9.699219 13.300781 7 10 7 Z M 23.5 18 C 25.984375 18 28 15.984375 28 13.5 C 28 11.015625 25.984375 9 23.5 9 C 21.015625 9 19 11.015625 19 13.5 C 19 15.984375 21.015625 18 23.5 18 Z M 10 9 C 12.222656 9 14 10.777344 14 13 C 14 15.222656 12.222656 17 10 17 C 7.777344 17 6 15.222656 6 13 C 6 10.777344 7.777344 9 10 9 Z "/>
</g>
</svg>
