<?xml version="1.0" encoding="UTF-8"?>
<svg xmlns="http://www.w3.org/2000/svg" xmlns:xlink="http://www.w3.org/1999/xlink" width="26pt" height="26pt" viewBox="0 0 26 26" version="1.1">
<g id="surface1">
<path style=" stroke:none;fill-rule:nonzero;fill:#FFFFFF;fill-opacity:1;" d="M 12.804688 0.183594 C 5.835938 0.183594 0.183594 5.835938 0.183594 12.804688 C 0.183594 19.769531 5.835938 25.421875 12.804688 25.421875 C 19.769531 25.421875 25.421875 19.769531 25.421875 12.804688 C 25.421875 5.835938 19.769531 0.183594 12.804688 0.183594 Z M 12.804688 2.15625 C 18.671875 2.15625 23.453125 6.933594 23.453125 12.804688 C 23.453125 18.671875 18.671875 23.453125 12.804688 23.453125 C 6.933594 23.453125 2.15625 18.671875 2.15625 12.804688 C 2.15625 6.933594 6.933594 2.15625 12.804688 2.15625 Z M 8.863281 8.863281 C 7.773438 8.863281 6.894531 9.746094 6.894531 10.832031 C 6.894531 11.921875 7.773438 12.804688 8.863281 12.804688 C 9.953125 12.804688 10.832031 11.921875 10.832031 10.832031 C 10.832031 9.746094 9.953125 8.863281 8.863281 8.863281 Z M 16.742188 8.863281 C 15.652344 8.863281 14.773438 9.746094 14.773438 10.832031 C 14.773438 11.921875 15.652344 12.804688 16.742188 12.804688 C 17.832031 12.804688 18.710938 11.921875 18.710938 10.832031 C 18.710938 9.746094 17.832031 8.863281 16.742188 8.863281 Z M 5.664063 15.851563 C 7.238281 18.09375 9.851563 19.542969 12.804688 19.542969 C 15.753906 19.542969 18.367188 18.09375 19.941406 15.851563 C 17.929688 17.296875 15.46875 18.15625 12.804688 18.15625 C 10.136719 18.15625 7.675781 17.296875 5.664063 15.851563 Z "/>
</g>
</svg>
