<?xml version="1.0" encoding="UTF-8"?>
<svg xmlns="http://www.w3.org/2000/svg" xmlns:xlink="http://www.w3.org/1999/xlink" width="24pt" height="24pt" viewBox="0 0 24 24" version="1.1">
<g id="surface1">
<path style=" stroke:none;fill-rule:nonzero;fill:#FFFFFF;fill-opacity:1;" d="M 12 2 C 6.476563 2 2 6.476563 2 12 C 2 17.523438 6.476563 22 12 22 C 17.523438 22 22 17.523438 22 12 C 22 6.476563 17.523438 2 12 2 Z M 15.5 8 C 16.328125 8 17 8.671875 17 9.5 C 17 10.328125 16.328125 11 15.5 11 C 14.671875 11 14 10.328125 14 9.5 C 14 8.671875 14.671875 8 15.5 8 Z M 8.5 8 C 9.328125 8 10 8.671875 10 9.5 C 10 10.328125 9.328125 11 8.5 11 C 7.671875 11 7 10.328125 7 9.5 C 7 8.671875 7.671875 8 8.5 8 Z M 12 17.5 C 9.96875 17.5 8.203125 16.390625 7.253906 14.753906 C 7.058594 14.421875 7.308594 14 7.691406 14 L 16.308594 14 C 16.691406 14 16.9375 14.421875 16.746094 14.753906 C 15.796875 16.390625 14.03125 17.5 12 17.5 Z "/>
</g>
</svg>
