<?xml version="1.0" encoding="UTF-8"?>
<svg xmlns="http://www.w3.org/2000/svg" xmlns:xlink="http://www.w3.org/1999/xlink" width="30pt" height="30pt" viewBox="0 0 30 30" version="1.1">
<g id="surface1">
<path style=" stroke:none;fill-rule:nonzero;fill:#FFFFFF;fill-opacity:1;" d="M 14.800781 2.960938 C 11.535156 2.960938 8.882813 5.613281 8.882813 8.882813 L 8.882813 9.867188 C 8.882813 13.136719 11.535156 15.789063 14.800781 15.789063 C 18.070313 15.789063 20.722656 13.136719 20.722656 9.867188 L 20.722656 8.882813 C 20.722656 5.613281 18.070313 2.960938 14.800781 2.960938 Z M 14.800781 18.75 C 10.847656 18.75 5.773438 20.890625 4.316406 22.785156 C 3.414063 23.957031 4.269531 25.65625 5.75 25.65625 L 23.855469 25.65625 C 25.332031 25.65625 26.191406 23.957031 25.289063 22.785156 C 23.828125 20.890625 18.753906 18.75 14.800781 18.75 Z "/>
</g>
</svg>
